<svg width="46" height="40" viewBox="0 0 46 40" fill="none" xmlns="http://www.w3.org/2000/svg">
<path d="M11.5 0.83334L13.7444 1.22242C13.064 5.52534 15.2605 6.0505 18.9175 6.73092C21.7312 7.2542 24.9167 7.9231 24.9167 13.0253V14.25H22.6493V13.0253C22.6493 10.0429 21.7292 9.558 18.5016 8.9581C13.5508 8.0381 10.6509 6.292 11.5 0.83334ZM46 27.6667C46 34.0147 41.0032 39.1667 34.8354 39.1667C31.9393 39.1667 29.3039 38.0263 27.3202 36.1671C24.8074 33.8115 21.0373 33.9974 18.5993 36.2399C16.6252 38.0569 14.0204 39.1667 11.1646 39.1667C4.99867 39.1667 0 34.0147 0 27.6667C0 21.3187 4.99867 16.1667 11.1646 16.1667L35.2437 16.1801C41.2198 16.4024 46 21.4605 46 27.6667ZM17.25 25.75H13.4167V21.9167H9.58333V25.75H5.75V29.5833H9.58333V33.4167H13.4167V29.5833H17.25V25.75ZM24.9167 27.6667H21.0833V29.5833H24.9167V27.6667ZM32.5833 23.8333C32.5833 24.8913 33.4401 25.75 34.5 25.75C35.5599 25.75 36.4167 24.8913 36.4167 23.8333C36.4167 22.7753 35.5599 21.9167 34.5 21.9167C33.4401 21.9167 32.5833 22.7753 32.5833 23.8333ZM32.5833 27.6667C32.5833 26.6087 31.7266 25.75 30.6667 25.75C29.6067 25.75 28.75 26.6087 28.75 27.6667C28.75 28.7247 29.6067 29.5833 30.6667 29.5833C31.7266 29.5833 32.5833 28.7247 32.5833 27.6667ZM36.4167 31.5C36.4167 30.442 35.5599 29.5833 34.5 29.5833C33.4401 29.5833 32.5833 30.442 32.5833 31.5C32.5833 32.558 33.4401 33.4167 34.5 33.4167C35.5599 33.4167 36.4167 32.558 36.4167 31.5ZM40.25 27.6667C40.25 26.6087 39.3932 25.75 38.3333 25.75C37.2734 25.75 36.4167 26.6087 36.4167 27.6667C36.4167 28.7247 37.2734 29.5833 38.3333 29.5833C39.3932 29.5833 40.25 28.7247 40.25 27.6667Z" fill="#A6B1B7"/>
</svg>
