<svg width="50" height="58" viewBox="0 0 50 58" fill="none" xmlns="http://www.w3.org/2000/svg">
<path d="M49.1667 42.5503C47.2672 48.0603 41.5808 57.8163 35.7228 57.9227C31.8368 57.9976 30.5874 55.6196 26.1455 55.6196C21.7061 55.6196 20.3165 57.8502 16.6432 57.9952C10.4275 58.2344 0.833374 43.9133 0.833374 31.4239C0.833374 19.952 8.8277 14.2656 15.8119 14.1617C19.5577 14.094 23.0957 16.6871 25.3795 16.6871C27.6729 16.6871 31.9697 13.5696 36.4865 14.0263C38.3763 14.1061 43.6857 14.7876 47.0932 19.7708C38.0525 25.6723 39.4614 38.0142 49.1667 42.5503ZM36.5469 0C29.7174 0.2755 24.1445 7.44092 24.9227 13.3666C31.235 13.8572 37.2912 6.78117 36.5469 0Z" fill="#A6B1B7"/>
</svg>
